<svg width="1024" height="1024" viewBox="0 0 1024 1024" fill="none" xmlns="http://www.w3.org/2000/svg">
<path d="M42.6667 449.092L447.968 148.92C485.631 121.027 538.369 121.027 576.032 148.92L981.333 449.092M199.111 349.779V796.687C199.111 851.536 245.806 896 303.407 896H720.593C778.194 896 824.889 851.536 824.889 796.687V349.779M459.852 697.374H564.148C592.949 697.374 616.296 675.142 616.296 647.718V548.405C616.296 520.981 592.949 498.749 564.148 498.749H459.852C431.051 498.749 407.704 520.981 407.704 548.405V647.718C407.704 675.142 431.051 697.374 459.852 697.374Z" stroke="#00BC91" stroke-width="60" stroke-linecap="round"/>
</svg>
