<svg width="1024" height="1024" viewBox="0 0 1024 1024" fill="none" xmlns="http://www.w3.org/2000/svg">
<path fill-rule="evenodd" clip-rule="evenodd" d="M608 234.667C608 158.083 670.084 96 746.666 96C823.249 96 885.333 158.083 885.333 234.667C885.333 311.25 823.249 373.333 746.666 373.333C670.083 373.333 608 311.25 608 234.667ZM746.666 160C705.43 160 672 193.43 672 234.667C672 275.903 705.43 309.333 746.666 309.333C787.903 309.333 821.333 275.903 821.333 234.667C821.333 193.43 787.903 160 746.666 160Z" fill="#00BC91"/>
<path fill-rule="evenodd" clip-rule="evenodd" d="M138.667 512C138.667 435.417 200.75 373.333 277.333 373.333C353.916 373.333 416 435.417 416 512C416 588.583 353.916 650.667 277.333 650.667C200.75 650.667 138.667 588.583 138.667 512ZM277.333 437.333C236.096 437.333 202.667 470.763 202.667 512C202.667 553.237 236.096 586.667 277.333 586.667C318.57 586.667 352 553.237 352 512C352 470.763 318.57 437.333 277.333 437.333Z" fill="#00BC91"/>
<path fill-rule="evenodd" clip-rule="evenodd" d="M667.373 273.006C676.53 288.122 671.701 307.799 656.585 316.957L386.482 480.603C371.367 489.76 351.689 484.931 342.532 469.816C333.374 454.7 338.203 435.023 353.319 425.865L623.422 262.219C638.537 253.061 658.215 257.891 667.373 273.006Z" fill="#00BC91"/>
<path fill-rule="evenodd" clip-rule="evenodd" d="M342.351 550.418C351.342 535.203 370.965 530.157 386.18 539.148L670.775 707.319C685.991 716.31 691.036 735.933 682.045 751.148C673.055 766.363 653.432 771.409 638.216 762.418L353.621 594.247C338.406 585.257 333.36 565.634 342.351 550.418Z" fill="#00BC91"/>
<path fill-rule="evenodd" clip-rule="evenodd" d="M746.666 714.667C705.43 714.667 672 748.097 672 789.333C672 830.57 705.43 864 746.666 864C787.903 864 821.333 830.57 821.333 789.333C821.333 748.097 787.903 714.667 746.666 714.667ZM608 789.333C608 712.75 670.083 650.667 746.666 650.667C823.249 650.667 885.333 712.75 885.333 789.333C885.333 865.916 823.249 928 746.666 928C670.083 928 608 865.916 608 789.333Z" fill="#00BC91"/>
</svg>
