<svg width="1024" height="1024" viewBox="0 0 1024 1024" fill="none" xmlns="http://www.w3.org/2000/svg">
<path d="M716.8 938.667L716.8 908.667H716.8V938.667ZM307.2 938.667L307.2 968.667H307.2V938.667ZM170.667 802.133L140.667 802.133L170.667 802.133ZM170.667 221.867L200.667 221.867L170.667 221.867ZM179.968 131.926L153.237 118.307L153.237 118.307L179.968 131.926ZM307.2 85.3335L307.2 115.333L307.2 85.3335ZM217.26 94.6343L203.64 67.9041L203.64 67.9041L217.26 94.6343ZM217.26 929.366L203.64 956.096L203.64 956.096L217.26 929.366ZM179.968 892.074L206.698 878.454L206.698 878.454L179.968 892.074ZM806.741 929.366L793.121 902.636L793.121 902.636L806.741 929.366ZM853.333 802.134L883.333 802.134V802.134H853.333ZM844.033 892.074L817.302 878.454L817.302 878.454L844.033 892.074ZM883.333 341.334C883.333 324.765 869.902 311.334 853.333 311.334C836.765 311.334 823.333 324.765 823.333 341.334H883.333ZM597.334 115.334C613.902 115.334 627.334 101.902 627.334 85.3335C627.334 68.765 613.902 55.3335 597.334 55.3335L597.334 115.334ZM846.05 334.05L867.263 312.837L867.263 312.837L846.05 334.05ZM604.617 92.6172L583.404 113.83L583.404 113.83L604.617 92.6172ZM843.033 341.334L843.033 371.334L843.033 341.334ZM640 341.334L640 311.334L640 341.334ZM597.333 298.667L627.333 298.667V298.667H597.333ZM597.333 95.6342L567.333 95.6342V95.6342H597.333ZM341.333 482C324.765 482 311.333 495.432 311.333 512C311.333 528.569 324.765 542 341.333 542V482ZM682.667 542C699.235 542 712.667 528.569 712.667 512C712.667 495.432 699.235 482 682.667 482V542ZM341.333 311.334C324.765 311.334 311.333 324.765 311.333 341.334C311.333 357.902 324.765 371.334 341.333 371.334V311.334ZM426.667 371.334C443.235 371.334 456.667 357.902 456.667 341.334C456.667 324.765 443.235 311.334 426.667 311.334V371.334ZM341.333 652.667C324.765 652.667 311.333 666.098 311.333 682.667C311.333 699.235 324.765 712.667 341.333 712.667V652.667ZM682.667 712.667C699.235 712.667 712.667 699.235 712.667 682.667C712.667 666.098 699.235 652.667 682.667 652.667V712.667ZM716.8 908.667H307.2V968.667H716.8V908.667ZM200.667 802.133L200.667 221.867L140.667 221.867L140.667 802.133L200.667 802.133ZM200.667 221.867C200.667 197.476 200.69 180.988 201.73 168.263C202.741 155.889 204.561 149.739 206.698 145.546L153.237 118.307C146.073 132.367 143.243 147.292 141.929 163.377C140.643 179.112 140.667 198.466 140.667 221.867L200.667 221.867ZM307.2 55.3335C283.8 55.3335 264.445 55.3102 248.71 56.5957C232.626 57.9099 217.701 60.7397 203.64 67.9041L230.879 121.364C235.072 119.228 241.222 117.407 253.596 116.396C266.321 115.357 282.81 115.333 307.2 115.333L307.2 55.3335ZM206.698 145.546C212.003 135.134 220.468 126.67 230.879 121.364L203.64 67.9041C181.939 78.9615 164.295 96.6051 153.237 118.307L206.698 145.546ZM307.2 908.667C282.809 908.667 266.321 908.643 253.596 907.604C241.222 906.593 235.072 904.772 230.879 902.636L203.64 956.096C217.701 963.261 232.626 966.09 248.71 967.405C264.445 968.69 283.8 968.667 307.2 968.667L307.2 908.667ZM140.667 802.133C140.667 825.534 140.643 844.889 141.929 860.623C143.243 876.708 146.073 891.633 153.237 905.694L206.698 878.454C204.561 874.261 202.741 868.111 201.73 855.737C200.69 843.013 200.667 826.524 200.667 802.133L140.667 802.133ZM230.879 902.636C220.468 897.331 212.003 888.866 206.698 878.454L153.237 905.694C164.295 927.395 181.938 945.039 203.64 956.096L230.879 902.636ZM716.8 968.667C740.201 968.667 759.555 968.69 775.29 967.405C791.374 966.09 806.299 963.261 820.36 956.096L793.121 902.636C788.928 904.772 782.778 906.593 770.404 907.604C757.679 908.643 741.191 908.667 716.8 908.667L716.8 968.667ZM823.333 802.133C823.333 826.524 823.31 843.013 822.27 855.737C821.259 868.112 819.439 874.261 817.302 878.454L870.763 905.694C877.927 891.633 880.757 876.708 882.071 860.623C883.357 844.889 883.333 825.534 883.333 802.134L823.333 802.133ZM820.36 956.096C842.062 945.039 859.705 927.395 870.763 905.694L817.302 878.454C811.997 888.866 803.533 897.331 793.121 902.636L820.36 956.096ZM823.333 341.334V802.134H883.333V341.334H823.333ZM307.2 115.333L597.334 115.334L597.334 55.3335L307.2 55.3335L307.2 115.333ZM867.263 312.837L625.83 71.404L583.404 113.83L824.837 355.263L867.263 312.837ZM843.033 311.334L640 311.334L640 371.334L843.033 371.334L843.033 311.334ZM627.333 298.667V95.6342H567.333V298.667H627.333ZM640 311.334C633.004 311.334 627.333 305.662 627.333 298.667L567.333 298.667C567.333 338.8 599.867 371.334 640 371.334L640 311.334ZM625.83 71.404C604.243 49.8172 567.333 65.1059 567.333 95.6342L627.333 95.6342C627.333 118.56 599.615 130.042 583.404 113.83L625.83 71.404ZM824.837 355.263C808.625 339.052 820.107 311.334 843.033 311.334L843.033 371.334C873.561 371.334 888.85 334.424 867.263 312.837L824.837 355.263ZM341.333 542H682.667V482H341.333V542ZM341.333 371.334H426.667V311.334H341.333V371.334ZM341.333 712.667H682.667V652.667H341.333V712.667Z" fill="#00BC91"/>
</svg>
