<svg width="1024" height="1024" viewBox="0 0 1024 1024" fill="none" xmlns="http://www.w3.org/2000/svg">
<path fill-rule="evenodd" clip-rule="evenodd" d="M394.665 128C394.665 110.327 408.992 96 426.665 96H597.332C615.005 96 629.332 110.327 629.332 128V330.667H767.999C780.942 330.667 792.61 338.463 797.563 350.421C802.516 362.379 799.778 376.142 790.626 385.294L534.626 641.294C528.625 647.295 520.486 650.667 511.999 650.667C503.512 650.667 495.372 647.295 489.371 641.294L233.373 385.294C224.222 376.142 221.484 362.378 226.437 350.421C231.39 338.463 243.058 330.667 256.001 330.667H394.665V128ZM458.665 160V362.667C458.665 380.34 444.339 394.667 426.665 394.667H333.255L511.999 573.412L690.744 394.667H597.332C579.659 394.667 565.332 380.34 565.332 362.667V160H458.665Z" fill="white"/>
<path fill-rule="evenodd" clip-rule="evenodd" d="M96 789.333C96 771.66 110.327 757.333 128 757.333H896C913.673 757.333 928 771.66 928 789.333C928 807.006 913.673 821.333 896 821.333H128C110.327 821.333 96 807.006 96 789.333Z" fill="white"/>
<path fill-rule="evenodd" clip-rule="evenodd" d="M266.667 938.667C266.667 920.994 280.994 906.667 298.667 906.667H725.333C743.006 906.667 757.333 920.994 757.333 938.667C757.333 956.34 743.006 970.667 725.333 970.667H298.667C280.994 970.667 266.667 956.34 266.667 938.667Z" fill="white"/>
</svg>
