<svg width="1024" height="1024" viewBox="0 0 1024 1024" fill="none" xmlns="http://www.w3.org/2000/svg">
<path d="M128 213.333L459.611 471.252C490.425 495.219 533.575 495.219 564.39 471.252L896 213.333M221.867 853.333H802.133C849.925 853.333 873.82 853.333 892.074 844.032C908.131 835.851 921.185 822.797 929.366 806.74C938.667 788.487 938.667 764.591 938.667 716.8V307.2C938.667 259.409 938.667 235.513 929.366 217.259C921.185 201.203 908.131 188.148 892.074 179.967C873.82 170.667 849.925 170.667 802.133 170.667H221.867C174.076 170.667 150.18 170.667 131.926 179.967C115.87 188.148 102.815 201.203 94.6343 217.259C85.3335 235.513 85.3335 259.409 85.3335 307.2V716.8C85.3335 764.591 85.3335 788.487 94.6343 806.74C102.815 822.797 115.87 835.851 131.926 844.032C150.18 853.333 174.076 853.333 221.867 853.333Z" stroke="white" stroke-width="60"/>
</svg>
