<svg width="1024" height="1024" viewBox="0 0 1024 1024" fill="none" xmlns="http://www.w3.org/2000/svg">
<path d="M341.333 341.333V298.667C341.333 204.41 417.743 128 512 128C606.257 128 682.667 204.41 682.667 298.667V341.333M128 512L477.343 667.263C499.407 677.07 524.593 677.07 546.657 667.264L896 512M264.533 896H759.467C807.258 896 831.153 896 849.407 886.699C865.464 878.518 878.518 865.464 886.699 849.407C896 831.153 896 807.258 896 759.467V477.867C896 430.076 896 406.18 886.699 387.926C878.518 371.87 865.464 358.815 849.407 350.634C831.153 341.333 807.258 341.333 759.467 341.333H264.533C216.742 341.333 192.847 341.333 174.593 350.634C158.536 358.815 145.482 371.87 137.301 387.926C128 406.18 128 430.076 128 477.867V759.467C128 807.258 128 831.153 137.301 849.407C145.482 865.464 158.536 878.518 174.593 886.699C192.847 896 216.742 896 264.533 896Z" stroke="white" stroke-width="60" stroke-linecap="round"/>
</svg>
