<svg width="1024" height="1024" viewBox="0 0 1024 1024" fill="none" xmlns="http://www.w3.org/2000/svg">
<path d="M479.267 162.284C486.889 159.239 495.391 159.239 503.014 162.284L951.488 341.484C963.642 346.341 971.614 358.111 971.614 371.2C971.614 384.289 963.642 396.059 951.488 400.916L503.014 580.116C495.391 583.161 486.889 583.161 479.267 580.116L30.7931 400.916C18.6383 396.059 10.6667 384.289 10.6667 371.2C10.6667 358.111 18.6383 346.341 30.7931 341.484L479.267 162.284ZM128.908 371.2L491.14 515.94L853.373 371.2L491.14 226.46L128.908 371.2Z" fill="white"/>
<path d="M939.614 341.549C957.287 341.549 971.614 355.876 971.614 373.549V570.31C971.614 587.983 957.287 602.31 939.614 602.31C921.941 602.31 907.614 587.983 907.614 570.31V373.549C907.614 355.876 921.941 341.549 939.614 341.549Z" fill="white"/>
<path d="M246.517 433.606C264.191 433.606 278.517 447.933 278.517 465.606V716.694C280.35 718.236 282.432 719.951 284.754 721.808C295.605 730.485 311.57 742.163 331.664 753.85C372.101 777.368 427.656 800 491.14 800C554.625 800 610.18 777.368 650.616 753.85C670.711 742.163 686.675 730.485 697.526 721.808C699.849 719.951 701.931 718.236 703.763 716.694V465.606C703.763 447.933 718.09 433.606 735.763 433.606C753.436 433.606 767.763 447.933 767.763 465.606V731.023C767.763 739.599 764.321 747.816 758.208 753.832L735.763 731.023C758.208 753.832 758.208 753.832 758.208 753.832L758.127 753.911L758.008 754.027L757.656 754.368L756.501 755.466C755.533 756.376 754.169 757.638 752.424 759.2C748.937 762.323 743.92 766.656 737.495 771.793C724.668 782.05 706.103 795.616 682.793 809.173C636.42 836.144 569.663 864 491.14 864C412.617 864 345.861 836.144 299.488 809.173C276.178 795.616 257.613 782.05 244.786 771.793C238.361 766.656 233.343 762.323 229.856 759.2C228.112 757.638 226.748 756.376 225.779 755.466L224.625 754.368L224.273 754.027L224.154 753.911L224.108 753.867C224.108 753.867 224.073 753.832 246.517 731.023L224.073 753.832C217.96 747.816 214.517 739.599 214.517 731.023V465.606C214.517 447.933 228.844 433.606 246.517 433.606Z" fill="white"/>
</svg>
